<?xml version="1.0" encoding="UTF-8" standalone="no"?>
<!DOCTYPE svg PUBLIC "-//W3C//DTD SVG 1.1//EN"
 "http://www.w3.org/Graphics/SVG/1.1/DTD/svg11.dtd">
<!-- Generated by graphviz version 2.28.0 (20120228.1928)
 -->
<!-- Title: G Pages: 1 -->
<svg width="120pt" height="132pt"
 viewBox="0.00 0.00 120.00 132.00" xmlns="http://www.w3.org/2000/svg" xmlns:xlink="http://www.w3.org/1999/xlink">
<g id="graph1" class="graph" transform="scale(1 1) rotate(0) translate(4 128)">
<title>G</title>
<polygon fill="white" stroke="white" points="-4,5 -4,-128 117,-128 117,5 -4,5"/>
<g id="graph2" class="cluster"><title>cluster_US</title>
<polyline fill="none" stroke="gray" points="20,-8 92,-8 "/>
<path fill="none" stroke="gray" d="M92,-8C98,-8 104,-14 104,-20"/>
<polyline fill="none" stroke="gray" points="104,-20 104,-104 "/>
<path fill="none" stroke="gray" d="M104,-104C104,-110 98,-116 92,-116"/>
<polyline fill="none" stroke="gray" points="92,-116 20,-116 "/>
<path fill="none" stroke="gray" d="M20,-116C14,-116 8,-110 8,-104"/>
<polyline fill="none" stroke="gray" points="8,-104 8,-20 "/>
<path fill="none" stroke="gray" d="M8,-20C8,-14 14,-8 20,-8"/>
<text text-anchor="middle" x="56" y="-103.2" font-family="Times,serif" font-size="11.00" fill="gray">US</text>
</g>
<g id="graph3" class="cluster"><title>cluster_US\OpenSSO</title>
<polyline fill="none" stroke="gray" points="28,-16 84,-16 "/>
<path fill="none" stroke="gray" d="M84,-16C90,-16 96,-22 96,-28"/>
<polyline fill="none" stroke="gray" points="96,-28 96,-76 "/>
<path fill="none" stroke="gray" d="M96,-76C96,-82 90,-88 84,-88"/>
<polyline fill="none" stroke="gray" points="84,-88 28,-88 "/>
<path fill="none" stroke="gray" d="M28,-88C22,-88 16,-82 16,-76"/>
<polyline fill="none" stroke="gray" points="16,-76 16,-28 "/>
<path fill="none" stroke="gray" d="M16,-28C16,-22 22,-16 28,-16"/>
<text text-anchor="middle" x="56" y="-75.2" font-family="Times,serif" font-size="11.00" fill="gray">OpenSSO</text>
</g>
<!-- \\US\\OpenSSO\\Handler -->
<g id="node3" class="node"><title>\\US\\OpenSSO\\Handler</title>
<a xlink:href="US.OpenSSO.Handler.html" xlink:title="Handler" target="_parent">
<polygon fill="none" stroke="black" points="88,-60 24,-60 24,-24 88,-24 88,-60"/>
<text text-anchor="middle" x="56" y="-39.2" font-family="Courier,monospace" font-size="11.00">Handler</text>
</a>
</g>
</g>
</svg>
