<?xml version="1.0" encoding="UTF-8" standalone="no"?>
<!DOCTYPE svg PUBLIC "-//W3C//DTD SVG 1.1//EN"
 "http://www.w3.org/Graphics/SVG/1.1/DTD/svg11.dtd">
<!-- Generated by graphviz version 2.28.0 (20111211.2114)
 -->
<!-- Title: G Pages: 1 -->
<svg width="104pt" height="96pt"
 viewBox="0.00 0.00 104.00 96.00" xmlns="http://www.w3.org/2000/svg" xmlns:xlink="http://www.w3.org/1999/xlink">
<g id="graph1" class="graph" transform="scale(1 1) rotate(0) translate(4 92)">
<title>G</title>
<polygon fill="white" stroke="white" points="-4,5 -4,-92 101,-92 101,5 -4,5"/>
<g id="graph2" class="cluster"><title>cluster_OpenSSO</title>
<polyline fill="none" stroke="gray" points="20,-8 76,-8 "/>
<path fill="none" stroke="gray" d="M76,-8C82,-8 88,-14 88,-20"/>
<polyline fill="none" stroke="gray" points="88,-20 88,-68 "/>
<path fill="none" stroke="gray" d="M88,-68C88,-74 82,-80 76,-80"/>
<polyline fill="none" stroke="gray" points="76,-80 20,-80 "/>
<path fill="none" stroke="gray" d="M20,-80C14,-80 8,-74 8,-68"/>
<polyline fill="none" stroke="gray" points="8,-68 8,-20 "/>
<path fill="none" stroke="gray" d="M8,-20C8,-14 14,-8 20,-8"/>
<text text-anchor="middle" x="48" y="-67.2" font-family="Times,serif" font-size="11.00" fill="gray">OpenSSO</text>
</g>
<!-- \\OpenSSO\\Handler -->
<g id="node2" class="node"><title>\\OpenSSO\\Handler</title>
<a xlink:href="OpenSSO.Handler.html" xlink:title="Handler" target="_parent">
<polygon fill="none" stroke="black" points="80,-52 16,-52 16,-16 80,-16 80,-52"/>
<text text-anchor="middle" x="48" y="-31.2" font-family="Courier,monospace" font-size="11.00">Handler</text>
</a>
</g>
</g>
</svg>
